<mxfile host="app.diagrams.net" agent="Mozilla/5.0 (Windows NT 10.0; Win64; x64) AppleWebKit/537.36 (KHTML, like Gecko) Chrome/136.0.0.0 Safari/537.36" version="27.0.9" pages="2">
  <diagram name="Page-1" id="6mwMrV8Ct3cwIWRiLzo8">
    <mxGraphModel dx="1272" dy="562" grid="1" gridSize="10" guides="1" tooltips="1" connect="1" arrows="1" fold="1" page="1" pageScale="1" pageWidth="850" pageHeight="1100" math="0" shadow="0">
      <root>
        <mxCell id="0" />
        <mxCell id="1" parent="0" />
      </root>
    </mxGraphModel>
  </diagram>
  <diagram id="YnocNdhPVhSfNBksm014" name="Page-2">
    <mxGraphModel dx="1042" dy="562" grid="1" gridSize="10" guides="1" tooltips="1" connect="1" arrows="1" fold="1" page="1" pageScale="1" pageWidth="850" pageHeight="1100" math="0" shadow="0">
      <root>
        <mxCell id="0" />
        <mxCell id="1" parent="0" />
        <mxCell id="iKjMKDLRuDSE8DI5zaeM-1" value="Client Devices" style="rounded=1;whiteSpace=wrap;html=1;fillColor=#6a00ff;fontColor=#ffffff;strokeColor=#3700CC;" vertex="1" parent="1">
          <mxGeometry x="100" y="80" width="120" height="60" as="geometry" />
        </mxCell>
        <mxCell id="iKjMKDLRuDSE8DI5zaeM-2" value="DNS Queries" style="rounded=1;whiteSpace=wrap;html=1;fillColor=#6a00ff;fontColor=#ffffff;strokeColor=#3700CC;" vertex="1" parent="1">
          <mxGeometry x="560" y="80" width="120" height="60" as="geometry" />
        </mxCell>
        <mxCell id="iKjMKDLRuDSE8DI5zaeM-3" value="Network Traffic" style="rounded=1;whiteSpace=wrap;html=1;fillColor=#6a00ff;fontColor=#ffffff;strokeColor=#3700CC;" vertex="1" parent="1">
          <mxGeometry x="330" y="80" width="120" height="60" as="geometry" />
        </mxCell>
        <mxCell id="iKjMKDLRuDSE8DI5zaeM-4" value="" style="endArrow=none;html=1;rounded=0;entryX=0.5;entryY=1;entryDx=0;entryDy=0;" edge="1" parent="1" target="iKjMKDLRuDSE8DI5zaeM-2">
          <mxGeometry width="50" height="50" relative="1" as="geometry">
            <mxPoint x="400" y="290" as="sourcePoint" />
            <mxPoint x="450" y="240" as="targetPoint" />
            <Array as="points" />
          </mxGeometry>
        </mxCell>
        <mxCell id="iKjMKDLRuDSE8DI5zaeM-5" value="" style="endArrow=none;html=1;rounded=0;entryX=0.603;entryY=1.057;entryDx=0;entryDy=0;entryPerimeter=0;" edge="1" parent="1" target="iKjMKDLRuDSE8DI5zaeM-1">
          <mxGeometry width="50" height="50" relative="1" as="geometry">
            <mxPoint x="400" y="290" as="sourcePoint" />
            <mxPoint x="450" y="240" as="targetPoint" />
          </mxGeometry>
        </mxCell>
        <mxCell id="iKjMKDLRuDSE8DI5zaeM-6" value="" style="endArrow=none;html=1;rounded=0;entryX=0.58;entryY=1.057;entryDx=0;entryDy=0;entryPerimeter=0;" edge="1" parent="1" target="iKjMKDLRuDSE8DI5zaeM-3">
          <mxGeometry width="50" height="50" relative="1" as="geometry">
            <mxPoint x="400" y="290" as="sourcePoint" />
            <mxPoint x="450" y="240" as="targetPoint" />
          </mxGeometry>
        </mxCell>
        <mxCell id="iKjMKDLRuDSE8DI5zaeM-9" style="edgeStyle=orthogonalEdgeStyle;rounded=0;orthogonalLoop=1;jettySize=auto;html=1;exitX=0.75;exitY=1;exitDx=0;exitDy=0;" edge="1" parent="1" source="iKjMKDLRuDSE8DI5zaeM-7">
          <mxGeometry relative="1" as="geometry">
            <mxPoint x="650" y="330" as="targetPoint" />
          </mxGeometry>
        </mxCell>
        <mxCell id="iKjMKDLRuDSE8DI5zaeM-7" value="suricata" style="rounded=1;whiteSpace=wrap;html=1;fillColor=#1ba1e2;fontColor=#ffffff;strokeColor=#006EAF;" vertex="1" parent="1">
          <mxGeometry x="340" y="290" width="120" height="60" as="geometry" />
        </mxCell>
        <mxCell id="iKjMKDLRuDSE8DI5zaeM-8" value="" style="endArrow=classic;html=1;rounded=0;exitX=0.596;exitY=1.013;exitDx=0;exitDy=0;exitPerimeter=0;" edge="1" parent="1" source="iKjMKDLRuDSE8DI5zaeM-12">
          <mxGeometry width="50" height="50" relative="1" as="geometry">
            <mxPoint x="600" y="560" as="sourcePoint" />
            <mxPoint x="590" y="560" as="targetPoint" />
            <Array as="points">
              <mxPoint x="720" y="560" />
            </Array>
          </mxGeometry>
        </mxCell>
        <mxCell id="iKjMKDLRuDSE8DI5zaeM-10" value="Behaviour" style="rounded=1;whiteSpace=wrap;html=1;fillColor=#60a917;fontColor=#ffffff;strokeColor=#2D7600;" vertex="1" parent="1">
          <mxGeometry x="650" y="300" width="120" height="60" as="geometry" />
        </mxCell>
        <mxCell id="iKjMKDLRuDSE8DI5zaeM-11" value="" style="endArrow=classic;html=1;rounded=0;" edge="1" parent="1" target="iKjMKDLRuDSE8DI5zaeM-12">
          <mxGeometry width="50" height="50" relative="1" as="geometry">
            <mxPoint x="709.5" y="360" as="sourcePoint" />
            <mxPoint x="709.5" y="440" as="targetPoint" />
          </mxGeometry>
        </mxCell>
        <mxCell id="iKjMKDLRuDSE8DI5zaeM-12" value="Classifier:&lt;div&gt;1. Frequency&lt;/div&gt;&lt;div&gt;2. TTl&lt;/div&gt;&lt;div&gt;3.Entropy&lt;/div&gt;" style="whiteSpace=wrap;html=1;aspect=fixed;fillColor=#0050ef;fontColor=#ffffff;strokeColor=#001DBC;" vertex="1" parent="1">
          <mxGeometry x="669.5" y="400" width="80" height="80" as="geometry" />
        </mxCell>
        <mxCell id="iKjMKDLRuDSE8DI5zaeM-13" value="Domain Tru Scores" style="rounded=1;whiteSpace=wrap;html=1;fillColor=#e6d0de;strokeColor=#996185;gradientColor=#d5739d;" vertex="1" parent="1">
          <mxGeometry x="470" y="530" width="120" height="60" as="geometry" />
        </mxCell>
        <mxCell id="iKjMKDLRuDSE8DI5zaeM-14" value="Unbound" style="rounded=1;whiteSpace=wrap;html=1;fillColor=#a20025;fontColor=#ffffff;strokeColor=#6F0000;" vertex="1" parent="1">
          <mxGeometry x="190" y="530" width="120" height="60" as="geometry" />
        </mxCell>
        <mxCell id="iKjMKDLRuDSE8DI5zaeM-15" value="" style="endArrow=classic;html=1;rounded=0;entryX=1;entryY=0.5;entryDx=0;entryDy=0;exitX=0;exitY=0.5;exitDx=0;exitDy=0;" edge="1" parent="1" source="iKjMKDLRuDSE8DI5zaeM-13" target="iKjMKDLRuDSE8DI5zaeM-14">
          <mxGeometry width="50" height="50" relative="1" as="geometry">
            <mxPoint x="400" y="580" as="sourcePoint" />
            <mxPoint x="450" y="530" as="targetPoint" />
          </mxGeometry>
        </mxCell>
        <mxCell id="iKjMKDLRuDSE8DI5zaeM-16" value="" style="endArrow=classic;html=1;rounded=0;entryX=0.393;entryY=0.063;entryDx=0;entryDy=0;entryPerimeter=0;exitX=0.637;exitY=0.97;exitDx=0;exitDy=0;exitPerimeter=0;" edge="1" parent="1" source="iKjMKDLRuDSE8DI5zaeM-7" target="iKjMKDLRuDSE8DI5zaeM-13">
          <mxGeometry width="50" height="50" relative="1" as="geometry">
            <mxPoint x="440" y="500" as="sourcePoint" />
            <mxPoint x="490" y="450" as="targetPoint" />
          </mxGeometry>
        </mxCell>
        <mxCell id="iKjMKDLRuDSE8DI5zaeM-17" value="" style="endArrow=classic;html=1;rounded=0;entryX=0.573;entryY=-0.017;entryDx=0;entryDy=0;entryPerimeter=0;" edge="1" parent="1" target="iKjMKDLRuDSE8DI5zaeM-14">
          <mxGeometry width="50" height="50" relative="1" as="geometry">
            <mxPoint x="470" y="440" as="sourcePoint" />
            <mxPoint x="360" y="400" as="targetPoint" />
            <Array as="points">
              <mxPoint x="260" y="440" />
            </Array>
          </mxGeometry>
        </mxCell>
        <mxCell id="iKjMKDLRuDSE8DI5zaeM-18" value="Trustwrothy Domains" style="text;html=1;align=center;verticalAlign=middle;resizable=0;points=[];autosize=1;strokeColor=none;fillColor=none;" vertex="1" parent="1">
          <mxGeometry x="290" y="408" width="140" height="30" as="geometry" />
        </mxCell>
        <mxCell id="iKjMKDLRuDSE8DI5zaeM-19" value="Suspicious Domains" style="text;html=1;align=center;verticalAlign=middle;resizable=0;points=[];autosize=1;strokeColor=none;fillColor=none;" vertex="1" parent="1">
          <mxGeometry x="295" y="438" width="130" height="30" as="geometry" />
        </mxCell>
        <mxCell id="iKjMKDLRuDSE8DI5zaeM-20" value="DNS Sinkhole" style="rounded=1;whiteSpace=wrap;html=1;fillColor=#f5f5f5;gradientColor=#b3b3b3;strokeColor=#666666;" vertex="1" parent="1">
          <mxGeometry x="460" y="740" width="120" height="60" as="geometry" />
        </mxCell>
        <mxCell id="iKjMKDLRuDSE8DI5zaeM-21" value="" style="endArrow=classic;html=1;rounded=0;entryX=0.5;entryY=0;entryDx=0;entryDy=0;exitX=0.427;exitY=1.05;exitDx=0;exitDy=0;exitPerimeter=0;" edge="1" parent="1" source="iKjMKDLRuDSE8DI5zaeM-13" target="iKjMKDLRuDSE8DI5zaeM-20">
          <mxGeometry width="50" height="50" relative="1" as="geometry">
            <mxPoint x="400" y="710" as="sourcePoint" />
            <mxPoint x="450" y="660" as="targetPoint" />
          </mxGeometry>
        </mxCell>
        <mxCell id="iKjMKDLRuDSE8DI5zaeM-23" style="edgeStyle=orthogonalEdgeStyle;rounded=0;orthogonalLoop=1;jettySize=auto;html=1;" edge="1" parent="1" source="iKjMKDLRuDSE8DI5zaeM-22">
          <mxGeometry relative="1" as="geometry">
            <mxPoint x="200" y="875" as="targetPoint" />
          </mxGeometry>
        </mxCell>
        <mxCell id="iKjMKDLRuDSE8DI5zaeM-24" style="edgeStyle=orthogonalEdgeStyle;rounded=0;orthogonalLoop=1;jettySize=auto;html=1;" edge="1" parent="1" source="iKjMKDLRuDSE8DI5zaeM-22">
          <mxGeometry relative="1" as="geometry">
            <mxPoint x="660" y="875" as="targetPoint" />
          </mxGeometry>
        </mxCell>
        <mxCell id="iKjMKDLRuDSE8DI5zaeM-22" value="DYNAMIC DNS SYNHOLE SYSTEM" style="text;html=1;align=center;verticalAlign=middle;resizable=0;points=[];autosize=1;strokeColor=none;fillColor=none;" vertex="1" parent="1">
          <mxGeometry x="310" y="860" width="220" height="30" as="geometry" />
        </mxCell>
      </root>
    </mxGraphModel>
  </diagram>
</mxfile>
